<svg xmlns="http://www.w3.org/2000/svg" width="1080" height="650" viewBox="0 0 1080 650" role="img" aria-labelledby="title desc"><title id="title">TP and PP representative-request convergence</title><desc id="desc">Six small multiples compare H32, H64, and H128 against full-window fixed-draining labels for TP and PP.</desc><style>text{font-family:system-ui,sans-serif;fill:currentColor;font-size:12px}.title{font-size:14px;font-weight:500}.axis,.grid,.series{fill:none;stroke:currentColor}.axis{stroke-width:1}.grid{stroke-width:1;opacity:.16}.series{stroke-width:2}.pp{stroke-dasharray:6 4}.marker{fill:var(--background,transparent);stroke:currentColor;stroke-width:2}</style><text class="title" x="55" y="65">Calls MAPE</text><line class="grid" x1="105" y1="275.0" x2="355" y2="275.0"/><text x="98" y="279.0" text-anchor="end">0.0</text><line class="grid" x1="105" y1="226.2" x2="355" y2="226.2"/><text x="98" y="230.2" text-anchor="end">3.2</text><line class="grid" x1="105" y1="177.5" x2="355" y2="177.5"/><text x="98" y="181.5" text-anchor="end">6.4</text><line class="grid" x1="105" y1="128.8" x2="355" y2="128.8"/><text x="98" y="132.8" text-anchor="end">9.6</text><line class="grid" x1="105" y1="80.0" x2="355" y2="80.0"/><text x="98" y="84.0" text-anchor="end">12.9</text><line class="axis" x1="105" y1="80" x2="105" y2="275"/><line class="axis" x1="105" y1="275" x2="355" y2="275"/><text x="105.0" y="295" text-anchor="middle">H32</text><text x="230.0" y="295" text-anchor="middle">H64</text><text x="355.0" y="295" text-anchor="middle">H128</text><polyline class="series" points="105.0,100.9 230.0,176.4 355.0,160.3"/><circle class="marker" cx="105.0" cy="100.9" r="4"/><circle class="marker" cx="230.0" cy="176.4" r="4"/><circle class="marker" cx="355.0" cy="160.3" r="4"/><text x="363.0" y="164.3">TP</text><polyline class="series pp" points="105.0,147.9 230.0,205.0 355.0,203.7"/><rect class="marker" x="101.0" y="143.9" width="8" height="8"/><rect class="marker" x="226.0" y="201.0" width="8" height="8"/><rect class="marker" x="351.0" y="199.7" width="8" height="8"/><text x="363.0" y="219.7">PP</text><text class="title" x="375" y="65">Logical bytes MAPE</text><line class="grid" x1="425" y1="275.0" x2="675" y2="275.0"/><text x="418" y="279.0" text-anchor="end">0.0</text><line class="grid" x1="425" y1="226.2" x2="675" y2="226.2"/><text x="418" y="230.2" text-anchor="end">1.6</text><line class="grid" x1="425" y1="177.5" x2="675" y2="177.5"/><text x="418" y="181.5" text-anchor="end">3.3</text><line class="grid" x1="425" y1="128.8" x2="675" y2="128.8"/><text x="418" y="132.8" text-anchor="end">4.9</text><line class="grid" x1="425" y1="80.0" x2="675" y2="80.0"/><text x="418" y="84.0" text-anchor="end">6.5</text><line class="axis" x1="425" y1="80" x2="425" y2="275"/><line class="axis" x1="425" y1="275" x2="675" y2="275"/><text x="425.0" y="295" text-anchor="middle">H32</text><text x="550.0" y="295" text-anchor="middle">H64</text><text x="675.0" y="295" text-anchor="middle">H128</text><polyline class="series" points="425.0,100.9 550.0,191.8 675.0,214.8"/><circle class="marker" cx="425.0" cy="100.9" r="4"/><circle class="marker" cx="550.0" cy="191.8" r="4"/><circle class="marker" cx="675.0" cy="214.8" r="4"/><text x="683.0" y="218.8">TP</text><polyline class="series pp" points="425.0,100.9 550.0,191.8 675.0,214.8"/><rect class="marker" x="421.0" y="96.9" width="8" height="8"/><rect class="marker" x="546.0" y="187.8" width="8" height="8"/><rect class="marker" x="671.0" y="210.8" width="8" height="8"/><text x="683.0" y="230.8">PP</text><text class="title" x="695" y="65">Histogram TV</text><line class="grid" x1="745" y1="275.0" x2="995" y2="275.0"/><text x="738" y="279.0" text-anchor="end">0.0</text><line class="grid" x1="745" y1="226.2" x2="995" y2="226.2"/><text x="738" y="230.2" text-anchor="end">0.1</text><line class="grid" x1="745" y1="177.5" x2="995" y2="177.5"/><text x="738" y="181.5" text-anchor="end">0.2</text><line class="grid" x1="745" y1="128.8" x2="995" y2="128.8"/><text x="738" y="132.8" text-anchor="end">0.2</text><line class="grid" x1="745" y1="80.0" x2="995" y2="80.0"/><text x="738" y="84.0" text-anchor="end">0.3</text><line class="axis" x1="745" y1="80" x2="745" y2="275"/><line class="axis" x1="745" y1="275" x2="995" y2="275"/><text x="745.0" y="295" text-anchor="middle">H32</text><text x="870.0" y="295" text-anchor="middle">H64</text><text x="995.0" y="295" text-anchor="middle">H128</text><polyline class="series" points="745.0,100.9 870.0,127.9 995.0,144.9"/><circle class="marker" cx="745.0" cy="100.9" r="4"/><circle class="marker" cx="870.0" cy="127.9" r="4"/><circle class="marker" cx="995.0" cy="144.9" r="4"/><text x="1003.0" y="148.9">TP</text><polyline class="series pp" points="745.0,216.7 870.0,222.2 995.0,225.7"/><rect class="marker" x="741.0" y="212.7" width="8" height="8"/><rect class="marker" x="866.0" y="218.2" width="8" height="8"/><rect class="marker" x="991.0" y="221.7" width="8" height="8"/><text x="1003.0" y="241.7">PP</text><text class="title" x="55" y="370">Normalized log-payload EMD</text><line class="grid" x1="105" y1="580.0" x2="355" y2="580.0"/><text x="98" y="584.0" text-anchor="end">0.0</text><line class="grid" x1="105" y1="531.2" x2="355" y2="531.2"/><text x="98" y="535.2" text-anchor="end">0.0</text><line class="grid" x1="105" y1="482.5" x2="355" y2="482.5"/><text x="98" y="486.5" text-anchor="end">0.0</text><line class="grid" x1="105" y1="433.8" x2="355" y2="433.8"/><text x="98" y="437.8" text-anchor="end">0.0</text><line class="grid" x1="105" y1="385.0" x2="355" y2="385.0"/><text x="98" y="389.0" text-anchor="end">0.0</text><line class="axis" x1="105" y1="385" x2="105" y2="580"/><line class="axis" x1="105" y1="580" x2="355" y2="580"/><text x="105.0" y="600" text-anchor="middle">H32</text><text x="230.0" y="600" text-anchor="middle">H64</text><text x="355.0" y="600" text-anchor="middle">H128</text><polyline class="series" points="105.0,405.9 230.0,441.0 355.0,458.9"/><circle class="marker" cx="105.0" cy="405.9" r="4"/><circle class="marker" cx="230.0" cy="441.0" r="4"/><circle class="marker" cx="355.0" cy="458.9" r="4"/><text x="363.0" y="462.9">TP</text><polyline class="series pp" points="105.0,504.3 230.0,520.5 355.0,524.2"/><rect class="marker" x="101.0" y="500.3" width="8" height="8"/><rect class="marker" x="226.0" y="516.5" width="8" height="8"/><rect class="marker" x="351.0" y="520.2" width="8" height="8"/><text x="363.0" y="540.2">PP</text><text class="title" x="375" y="370">Reference cost MAPE</text><line class="grid" x1="425" y1="580.0" x2="675" y2="580.0"/><text x="418" y="584.0" text-anchor="end">0.0</text><line class="grid" x1="425" y1="531.2" x2="675" y2="531.2"/><text x="418" y="535.2" text-anchor="end">1.9</text><line class="grid" x1="425" y1="482.5" x2="675" y2="482.5"/><text x="418" y="486.5" text-anchor="end">3.9</text><line class="grid" x1="425" y1="433.8" x2="675" y2="433.8"/><text x="418" y="437.8" text-anchor="end">5.8</text><line class="grid" x1="425" y1="385.0" x2="675" y2="385.0"/><text x="418" y="389.0" text-anchor="end">7.8</text><line class="axis" x1="425" y1="385" x2="425" y2="580"/><line class="axis" x1="425" y1="580" x2="675" y2="580"/><text x="425.0" y="600" text-anchor="middle">H32</text><text x="550.0" y="600" text-anchor="middle">H64</text><text x="675.0" y="600" text-anchor="middle">H128</text><polyline class="series" points="425.0,405.9 550.0,483.0 675.0,457.5"/><circle class="marker" cx="425.0" cy="405.9" r="4"/><circle class="marker" cx="550.0" cy="483.0" r="4"/><circle class="marker" cx="675.0" cy="457.5" r="4"/><text x="683.0" y="461.5">TP</text><polyline class="series pp" points="425.0,414.1 550.0,498.1 675.0,490.8"/><rect class="marker" x="421.0" y="410.1" width="8" height="8"/><rect class="marker" x="546.0" y="494.1" width="8" height="8"/><rect class="marker" x="671.0" y="486.8" width="8" height="8"/><text x="683.0" y="506.8">PP</text><text class="title" x="695" y="370">P95 calls APE</text><line class="grid" x1="745" y1="580.0" x2="995" y2="580.0"/><text x="738" y="584.0" text-anchor="end">0.0</text><line class="grid" x1="745" y1="531.2" x2="995" y2="531.2"/><text x="738" y="535.2" text-anchor="end">11.0</text><line class="grid" x1="745" y1="482.5" x2="995" y2="482.5"/><text x="738" y="486.5" text-anchor="end">22.0</text><line class="grid" x1="745" y1="433.8" x2="995" y2="433.8"/><text x="738" y="437.8" text-anchor="end">33.1</text><line class="grid" x1="745" y1="385.0" x2="995" y2="385.0"/><text x="738" y="389.0" text-anchor="end">44.1</text><line class="axis" x1="745" y1="385" x2="745" y2="580"/><line class="axis" x1="745" y1="580" x2="995" y2="580"/><text x="745.0" y="600" text-anchor="middle">H32</text><text x="870.0" y="600" text-anchor="middle">H64</text><text x="995.0" y="600" text-anchor="middle">H128</text><polyline class="series" points="745.0,405.9 870.0,507.3 995.0,457.5"/><circle class="marker" cx="745.0" cy="405.9" r="4"/><circle class="marker" cx="870.0" cy="507.3" r="4"/><circle class="marker" cx="995.0" cy="457.5" r="4"/><text x="1003.0" y="461.5">TP</text><polyline class="series pp" points="745.0,459.9 870.0,511.9 995.0,479.1"/><rect class="marker" x="741.0" y="455.9" width="8" height="8"/><rect class="marker" x="866.0" y="507.9" width="8" height="8"/><rect class="marker" x="991.0" y="475.1" width="8" height="8"/><text x="1003.0" y="495.1">PP</text></svg>
