<svg xmlns="http://www.w3.org/2000/svg" width="1000" height="480" viewBox="0 0 1000 480">
<rect width="100%" height="100%" fill="white"/>
<text x="55" y="30" font-family="sans-serif" font-size="20">Phase34 PP六模型开发侧候选分数（越低越好）</text>
<rect x="55.00" y="84.47" width="46.44" height="340.53" fill="#2563eb"/>
<rect x="104.44" y="90.04" width="46.44" height="334.96" fill="#2563eb"/>
<rect x="153.89" y="112.20" width="46.44" height="312.80" fill="#2563eb"/>
<rect x="203.33" y="111.41" width="46.44" height="313.59" fill="#2563eb"/>
<rect x="252.78" y="75.84" width="46.44" height="349.16" fill="#2563eb"/>
<rect x="302.22" y="88.71" width="46.44" height="336.29" fill="#2563eb"/>
<rect x="351.67" y="105.23" width="46.44" height="319.77" fill="#2563eb"/>
<rect x="401.11" y="106.50" width="46.44" height="318.50" fill="#2563eb"/>
<rect x="450.56" y="78.82" width="46.44" height="346.18" fill="#2563eb"/>
<rect x="500.00" y="84.45" width="46.44" height="340.55" fill="#2563eb"/>
<rect x="549.44" y="101.33" width="46.44" height="323.67" fill="#2563eb"/>
<rect x="598.89" y="104.43" width="46.44" height="320.57" fill="#2563eb"/>
<rect x="648.33" y="72.62" width="46.44" height="352.38" fill="#2563eb"/>
<rect x="697.78" y="84.58" width="46.44" height="340.42" fill="#2563eb"/>
<rect x="747.22" y="93.83" width="46.44" height="331.17" fill="#2563eb"/>
<rect x="796.67" y="102.75" width="46.44" height="322.25" fill="#2563eb"/>
<rect x="846.11" y="97.00" width="46.44" height="328.00" fill="#2563eb"/>
<rect x="895.56" y="94.11" width="46.44" height="330.89" fill="#2563eb"/>
</svg>
