<svg xmlns="http://www.w3.org/2000/svg" width="1100" height="560" viewBox="0 0 1100 560">
<rect width="100%" height="100%" fill="#ffffff"/>
<style>text{font-family:Arial,sans-serif;fill:#172033}.title{font-size:24px;font-weight:700}.axis{font-size:13px}.label{font-size:12px}.note{font-size:12px;fill:#5f6b7a}.grid{stroke:#dfe5ec;stroke-width:1}.axisline{stroke:#344054;stroke-width:1.4}</style>
<text x="550" y="36" text-anchor="middle" class="title">Phase71 communication-only integration</text>
<line x1="90" y1="450.0" x2="1070" y2="450.0" class="grid"/>
<text x="80" y="454.0" text-anchor="end" class="axis">0%</text>
<line x1="90" y1="375.0" x2="1070" y2="375.0" class="grid"/>
<text x="80" y="379.0" text-anchor="end" class="axis">1%</text>
<line x1="90" y1="300.0" x2="1070" y2="300.0" class="grid"/>
<text x="80" y="304.0" text-anchor="end" class="axis">1%</text>
<line x1="90" y1="225.0" x2="1070" y2="225.0" class="grid"/>
<text x="80" y="229.0" text-anchor="end" class="axis">2%</text>
<line x1="90" y1="150.0" x2="1070" y2="150.0" class="grid"/>
<text x="80" y="154.0" text-anchor="end" class="axis">3%</text>
<line x1="90" y1="75.0" x2="1070" y2="75.0" class="grid"/>
<text x="80" y="79.0" text-anchor="end" class="axis">4%</text>
<rect x="115.5" y="229.2" width="42.0" height="220.8" rx="2" fill="#98a2b3"/>
<text x="136.5" y="224.2" text-anchor="middle" class="label">2.1</text>
<rect x="162.5" y="266.0" width="42.0" height="184.0" rx="2" fill="#2e90fa"/>
<text x="183.5" y="261.0" text-anchor="middle" class="label">1.7</text>
<text x="160.0" y="473" text-anchor="middle" class="axis">P1D1</text>
<rect x="255.5" y="195.5" width="42.0" height="254.5" rx="2" fill="#98a2b3"/>
<text x="276.5" y="190.5" text-anchor="middle" class="label">2.4</text>
<rect x="302.5" y="235.5" width="42.0" height="214.5" rx="2" fill="#2e90fa"/>
<text x="323.5" y="230.5" text-anchor="middle" class="label">2.0</text>
<text x="300.0" y="473" text-anchor="middle" class="axis">P1D2</text>
<rect x="395.5" y="154.1" width="42.0" height="295.9" rx="2" fill="#98a2b3"/>
<text x="416.5" y="149.1" text-anchor="middle" class="label">2.8</text>
<rect x="442.5" y="180.2" width="42.0" height="269.8" rx="2" fill="#2e90fa"/>
<text x="463.5" y="175.2" text-anchor="middle" class="label">2.5</text>
<text x="440.0" y="473" text-anchor="middle" class="axis">P1D4</text>
<rect x="535.5" y="195.5" width="42.0" height="254.5" rx="2" fill="#98a2b3"/>
<text x="556.5" y="190.5" text-anchor="middle" class="label">2.4</text>
<rect x="582.5" y="235.5" width="42.0" height="214.5" rx="2" fill="#2e90fa"/>
<text x="603.5" y="230.5" text-anchor="middle" class="label">2.0</text>
<text x="580.0" y="473" text-anchor="middle" class="axis">P2D1</text>
<rect x="675.5" y="173.8" width="42.0" height="276.2" rx="2" fill="#98a2b3"/>
<text x="696.5" y="168.8" text-anchor="middle" class="label">2.6</text>
<rect x="722.5" y="196.8" width="42.0" height="253.2" rx="2" fill="#2e90fa"/>
<text x="743.5" y="191.8" text-anchor="middle" class="label">2.4</text>
<text x="720.0" y="473" text-anchor="middle" class="axis">P2D2_ALL_TO_ALL</text>
<rect x="815.5" y="179.5" width="42.0" height="270.5" rx="2" fill="#98a2b3"/>
<text x="836.5" y="174.5" text-anchor="middle" class="label">2.5</text>
<rect x="862.5" y="205.2" width="42.0" height="244.8" rx="2" fill="#2e90fa"/>
<text x="883.5" y="200.2" text-anchor="middle" class="label">2.3</text>
<text x="860.0" y="473" text-anchor="middle" class="axis">P2D2_MATCHING</text>
<rect x="955.5" y="160.4" width="42.0" height="289.6" rx="2" fill="#98a2b3"/>
<text x="976.5" y="155.4" text-anchor="middle" class="label">2.7</text>
<rect x="1002.5" y="185.4" width="42.0" height="264.6" rx="2" fill="#2e90fa"/>
<text x="1023.5" y="180.4" text-anchor="middle" class="label">2.5</text>
<text x="1000.0" y="473" text-anchor="middle" class="axis">P4D1</text>
<line x1="90" y1="450" x2="1070" y2="450" class="axisline"/>
<rect x="90" y="508" width="15" height="15" fill="#98a2b3"/>
<text x="112" y="520" class="axis">H0 cost WAPE</text>
<rect x="280" y="508" width="15" height="15" fill="#2e90fa"/>
<text x="302" y="520" class="axis">H0+DNN cost WAPE</text>
<text x="1070" y="542" text-anchor="end" class="note">Top labels are cost WAPE; placement agreement is listed below.</text>
<text x="160.0" y="493" text-anchor="middle" class="note">agree 99.4% → 99.7%</text>
<text x="300.0" y="493" text-anchor="middle" class="note">agree 99.4% → 99.7%</text>
<text x="440.0" y="493" text-anchor="middle" class="note">agree 98.3% → 99.0%</text>
<text x="580.0" y="493" text-anchor="middle" class="note">agree 99.4% → 99.7%</text>
<text x="720.0" y="493" text-anchor="middle" class="note">agree 98.3% → 99.0%</text>
<text x="860.0" y="493" text-anchor="middle" class="note">agree 98.3% → 99.0%</text>
<text x="1000.0" y="493" text-anchor="middle" class="note">agree 98.3% → 99.0%</text>
</svg>
