<svg xmlns="http://www.w3.org/2000/svg" width="1200" height="520" viewBox="0 0 1200 520">
<rect width="100%" height="100%" fill="white"/>
<text x="55" y="30" font-family="sans-serif" font-size="20">Phase33开发侧有限候选综合分数（越低越好）</text>
<rect x="55.00" y="81.06" width="39.92" height="373.94" fill="#2563eb"/>
<rect x="96.92" y="77.27" width="39.92" height="377.73" fill="#2563eb"/>
<rect x="138.85" y="81.48" width="39.92" height="373.52" fill="#2563eb"/>
<rect x="180.77" y="77.02" width="39.92" height="377.98" fill="#2563eb"/>
<rect x="222.69" y="77.54" width="39.92" height="377.46" fill="#2563eb"/>
<rect x="264.62" y="83.64" width="39.92" height="371.36" fill="#2563eb"/>
<rect x="306.54" y="81.19" width="39.92" height="373.81" fill="#2563eb"/>
<rect x="348.46" y="81.54" width="39.92" height="373.46" fill="#2563eb"/>
<rect x="390.38" y="87.78" width="39.92" height="367.22" fill="#2563eb"/>
<rect x="432.31" y="85.57" width="39.92" height="369.43" fill="#2563eb"/>
<rect x="474.23" y="77.78" width="39.92" height="377.22" fill="#2563eb"/>
<rect x="516.15" y="79.42" width="39.92" height="375.58" fill="#2563eb"/>
<rect x="558.08" y="82.05" width="39.92" height="372.95" fill="#2563eb"/>
<rect x="600.00" y="79.61" width="39.92" height="375.39" fill="#2563eb"/>
<rect x="641.92" y="74.05" width="39.92" height="380.95" fill="#2563eb"/>
<rect x="683.85" y="83.84" width="39.92" height="371.16" fill="#2563eb"/>
<rect x="725.77" y="77.67" width="39.92" height="377.33" fill="#2563eb"/>
<rect x="767.69" y="81.10" width="39.92" height="373.90" fill="#2563eb"/>
<rect x="809.62" y="242.35" width="39.92" height="212.65" fill="#ea580c"/>
<rect x="851.54" y="210.92" width="39.92" height="244.08" fill="#ea580c"/>
<rect x="893.46" y="178.99" width="39.92" height="276.01" fill="#ea580c"/>
<rect x="935.38" y="146.60" width="39.92" height="308.40" fill="#ea580c"/>
<rect x="977.31" y="134.84" width="39.92" height="320.16" fill="#ea580c"/>
<rect x="1019.23" y="134.34" width="39.92" height="320.66" fill="#ea580c"/>
<rect x="1061.15" y="133.75" width="39.92" height="321.25" fill="#ea580c"/>
<rect x="1103.08" y="133.47" width="39.92" height="321.53" fill="#ea580c"/>
</svg>
